<mxfile host="app.diagrams.net" agent="Mozilla/5.0 (Windows NT 10.0; Win64; x64) AppleWebKit/537.36 (KHTML, like Gecko) Chrome/134.0.0.0 Safari/537.36 OPR/119.0.0.0" version="27.1.3">
  <diagram name="PÃ¡gina-1" id="_-jlBnk4SrZmbug8-8pW">
    <mxGraphModel dx="1662" dy="952" grid="1" gridSize="10" guides="1" tooltips="1" connect="1" arrows="1" fold="1" page="1" pageScale="1" pageWidth="1169" pageHeight="827" math="0" shadow="0">
      <root>
        <mxCell id="0" />
        <mxCell id="1" parent="0" />
        <mxCell id="VXBI-gINmYWE86AibHXS-1" value="Persona" style="swimlane;fontStyle=0;childLayout=stackLayout;horizontal=1;startSize=30;horizontalStack=0;resizeParent=1;resizeParentMax=0;resizeLast=0;collapsible=1;marginBottom=0;whiteSpace=wrap;html=1;" vertex="1" parent="1">
          <mxGeometry x="110" y="90" width="140" height="210" as="geometry" />
        </mxCell>
        <mxCell id="VXBI-gINmYWE86AibHXS-2" value="- string nombre" style="text;strokeColor=none;fillColor=none;align=left;verticalAlign=middle;spacingLeft=4;spacingRight=4;overflow=hidden;points=[[0,0.5],[1,0.5]];portConstraint=eastwest;rotatable=0;whiteSpace=wrap;html=1;" vertex="1" parent="VXBI-gINmYWE86AibHXS-1">
          <mxGeometry y="30" width="140" height="30" as="geometry" />
        </mxCell>
        <mxCell id="VXBI-gINmYWE86AibHXS-3" value="- string dni" style="text;strokeColor=none;fillColor=none;align=left;verticalAlign=middle;spacingLeft=4;spacingRight=4;overflow=hidden;points=[[0,0.5],[1,0.5]];portConstraint=eastwest;rotatable=0;whiteSpace=wrap;html=1;" vertex="1" parent="VXBI-gINmYWE86AibHXS-1">
          <mxGeometry y="60" width="140" height="30" as="geometry" />
        </mxCell>
        <mxCell id="VXBI-gINmYWE86AibHXS-4" value="- int edad" style="text;strokeColor=none;fillColor=none;align=left;verticalAlign=middle;spacingLeft=4;spacingRight=4;overflow=hidden;points=[[0,0.5],[1,0.5]];portConstraint=eastwest;rotatable=0;whiteSpace=wrap;html=1;" vertex="1" parent="VXBI-gINmYWE86AibHXS-1">
          <mxGeometry y="90" width="140" height="30" as="geometry" />
        </mxCell>
        <mxCell id="VXBI-gINmYWE86AibHXS-81" value="" style="endArrow=none;html=1;rounded=0;exitX=0;exitY=-0.035;exitDx=0;exitDy=0;exitPerimeter=0;" edge="1" parent="VXBI-gINmYWE86AibHXS-1">
          <mxGeometry width="50" height="50" relative="1" as="geometry">
            <mxPoint y="119" as="sourcePoint" />
            <mxPoint x="140" y="120" as="targetPoint" />
          </mxGeometry>
        </mxCell>
        <mxCell id="VXBI-gINmYWE86AibHXS-25" value="+ string Nombre" style="text;strokeColor=none;fillColor=none;align=left;verticalAlign=middle;spacingLeft=4;spacingRight=4;overflow=hidden;points=[[0,0.5],[1,0.5]];portConstraint=eastwest;rotatable=0;whiteSpace=wrap;html=1;" vertex="1" parent="VXBI-gINmYWE86AibHXS-1">
          <mxGeometry y="120" width="140" height="30" as="geometry" />
        </mxCell>
        <mxCell id="VXBI-gINmYWE86AibHXS-26" value="+ string Dni" style="text;strokeColor=none;fillColor=none;align=left;verticalAlign=middle;spacingLeft=4;spacingRight=4;overflow=hidden;points=[[0,0.5],[1,0.5]];portConstraint=eastwest;rotatable=0;whiteSpace=wrap;html=1;" vertex="1" parent="VXBI-gINmYWE86AibHXS-1">
          <mxGeometry y="150" width="140" height="30" as="geometry" />
        </mxCell>
        <mxCell id="VXBI-gINmYWE86AibHXS-27" value="+ int Edad" style="text;strokeColor=none;fillColor=none;align=left;verticalAlign=middle;spacingLeft=4;spacingRight=4;overflow=hidden;points=[[0,0.5],[1,0.5]];portConstraint=eastwest;rotatable=0;whiteSpace=wrap;html=1;" vertex="1" parent="VXBI-gINmYWE86AibHXS-1">
          <mxGeometry y="180" width="140" height="30" as="geometry" />
        </mxCell>
        <mxCell id="VXBI-gINmYWE86AibHXS-5" value="Socio : Persona" style="swimlane;fontStyle=0;childLayout=stackLayout;horizontal=1;startSize=30;horizontalStack=0;resizeParent=1;resizeParentMax=0;resizeLast=0;collapsible=1;marginBottom=0;whiteSpace=wrap;html=1;" vertex="1" parent="1">
          <mxGeometry x="360" y="90" width="140" height="270" as="geometry" />
        </mxCell>
        <mxCell id="VXBI-gINmYWE86AibHXS-6" value="- string deporte" style="text;strokeColor=none;fillColor=none;align=left;verticalAlign=middle;spacingLeft=4;spacingRight=4;overflow=hidden;points=[[0,0.5],[1,0.5]];portConstraint=eastwest;rotatable=0;whiteSpace=wrap;html=1;" vertex="1" parent="VXBI-gINmYWE86AibHXS-5">
          <mxGeometry y="30" width="140" height="30" as="geometry" />
        </mxCell>
        <mxCell id="VXBI-gINmYWE86AibHXS-7" value="- string categoria" style="text;strokeColor=none;fillColor=none;align=left;verticalAlign=middle;spacingLeft=4;spacingRight=4;overflow=hidden;points=[[0,0.5],[1,0.5]];portConstraint=eastwest;rotatable=0;whiteSpace=wrap;html=1;" vertex="1" parent="VXBI-gINmYWE86AibHXS-5">
          <mxGeometry y="60" width="140" height="30" as="geometry" />
        </mxCell>
        <mxCell id="VXBI-gINmYWE86AibHXS-8" value="- int ultimoMesPago" style="text;strokeColor=none;fillColor=none;align=left;verticalAlign=middle;spacingLeft=4;spacingRight=4;overflow=hidden;points=[[0,0.5],[1,0.5]];portConstraint=eastwest;rotatable=0;whiteSpace=wrap;html=1;" vertex="1" parent="VXBI-gINmYWE86AibHXS-5">
          <mxGeometry y="90" width="140" height="30" as="geometry" />
        </mxCell>
        <mxCell id="VXBI-gINmYWE86AibHXS-28" value="- double descuento" style="text;strokeColor=none;fillColor=none;align=left;verticalAlign=middle;spacingLeft=4;spacingRight=4;overflow=hidden;points=[[0,0.5],[1,0.5]];portConstraint=eastwest;rotatable=0;whiteSpace=wrap;html=1;" vertex="1" parent="VXBI-gINmYWE86AibHXS-5">
          <mxGeometry y="120" width="140" height="30" as="geometry" />
        </mxCell>
        <mxCell id="VXBI-gINmYWE86AibHXS-80" value="" style="endArrow=none;html=1;rounded=0;exitX=0;exitY=-0.035;exitDx=0;exitDy=0;exitPerimeter=0;" edge="1" parent="VXBI-gINmYWE86AibHXS-5">
          <mxGeometry width="50" height="50" relative="1" as="geometry">
            <mxPoint y="150" as="sourcePoint" />
            <mxPoint x="140" y="151" as="targetPoint" />
          </mxGeometry>
        </mxCell>
        <mxCell id="VXBI-gINmYWE86AibHXS-33" value="+ string Deporte" style="text;strokeColor=none;fillColor=none;align=left;verticalAlign=middle;spacingLeft=4;spacingRight=4;overflow=hidden;points=[[0,0.5],[1,0.5]];portConstraint=eastwest;rotatable=0;whiteSpace=wrap;html=1;" vertex="1" parent="VXBI-gINmYWE86AibHXS-5">
          <mxGeometry y="150" width="140" height="30" as="geometry" />
        </mxCell>
        <mxCell id="VXBI-gINmYWE86AibHXS-35" value="+ string Categoria" style="text;strokeColor=none;fillColor=none;align=left;verticalAlign=middle;spacingLeft=4;spacingRight=4;overflow=hidden;points=[[0,0.5],[1,0.5]];portConstraint=eastwest;rotatable=0;whiteSpace=wrap;html=1;" vertex="1" parent="VXBI-gINmYWE86AibHXS-5">
          <mxGeometry y="180" width="140" height="30" as="geometry" />
        </mxCell>
        <mxCell id="VXBI-gINmYWE86AibHXS-36" value="+ int UltimoMesPago" style="text;strokeColor=none;fillColor=none;align=left;verticalAlign=middle;spacingLeft=4;spacingRight=4;overflow=hidden;points=[[0,0.5],[1,0.5]];portConstraint=eastwest;rotatable=0;whiteSpace=wrap;html=1;" vertex="1" parent="VXBI-gINmYWE86AibHXS-5">
          <mxGeometry y="210" width="140" height="30" as="geometry" />
        </mxCell>
        <mxCell id="VXBI-gINmYWE86AibHXS-34" value="+ double Descuento" style="text;strokeColor=none;fillColor=none;align=left;verticalAlign=middle;spacingLeft=4;spacingRight=4;overflow=hidden;points=[[0,0.5],[1,0.5]];portConstraint=eastwest;rotatable=0;whiteSpace=wrap;html=1;" vertex="1" parent="VXBI-gINmYWE86AibHXS-5">
          <mxGeometry y="240" width="140" height="30" as="geometry" />
        </mxCell>
        <mxCell id="VXBI-gINmYWE86AibHXS-9" value="Entrenador" style="swimlane;fontStyle=0;childLayout=stackLayout;horizontal=1;startSize=30;horizontalStack=0;resizeParent=1;resizeParentMax=0;resizeLast=0;collapsible=1;marginBottom=0;whiteSpace=wrap;html=1;" vertex="1" parent="1">
          <mxGeometry x="600" y="90" width="140" height="150" as="geometry" />
        </mxCell>
        <mxCell id="VXBI-gINmYWE86AibHXS-10" value="- string deporte" style="text;strokeColor=none;fillColor=none;align=left;verticalAlign=middle;spacingLeft=4;spacingRight=4;overflow=hidden;points=[[0,0.5],[1,0.5]];portConstraint=eastwest;rotatable=0;whiteSpace=wrap;html=1;" vertex="1" parent="VXBI-gINmYWE86AibHXS-9">
          <mxGeometry y="30" width="140" height="30" as="geometry" />
        </mxCell>
        <mxCell id="VXBI-gINmYWE86AibHXS-11" value="- string categoria" style="text;strokeColor=none;fillColor=none;align=left;verticalAlign=middle;spacingLeft=4;spacingRight=4;overflow=hidden;points=[[0,0.5],[1,0.5]];portConstraint=eastwest;rotatable=0;whiteSpace=wrap;html=1;" vertex="1" parent="VXBI-gINmYWE86AibHXS-9">
          <mxGeometry y="60" width="140" height="30" as="geometry" />
        </mxCell>
        <mxCell id="VXBI-gINmYWE86AibHXS-12" value="+ string Deporte" style="text;strokeColor=none;fillColor=none;align=left;verticalAlign=middle;spacingLeft=4;spacingRight=4;overflow=hidden;points=[[0,0.5],[1,0.5]];portConstraint=eastwest;rotatable=0;whiteSpace=wrap;html=1;" vertex="1" parent="VXBI-gINmYWE86AibHXS-9">
          <mxGeometry y="90" width="140" height="30" as="geometry" />
        </mxCell>
        <mxCell id="VXBI-gINmYWE86AibHXS-37" value="+ string Categoria" style="text;strokeColor=none;fillColor=none;align=left;verticalAlign=middle;spacingLeft=4;spacingRight=4;overflow=hidden;points=[[0,0.5],[1,0.5]];portConstraint=eastwest;rotatable=0;whiteSpace=wrap;html=1;" vertex="1" parent="VXBI-gINmYWE86AibHXS-9">
          <mxGeometry y="120" width="140" height="30" as="geometry" />
        </mxCell>
        <mxCell id="VXBI-gINmYWE86AibHXS-79" value="" style="endArrow=none;html=1;rounded=0;exitX=0;exitY=-0.035;exitDx=0;exitDy=0;exitPerimeter=0;" edge="1" parent="VXBI-gINmYWE86AibHXS-9" source="VXBI-gINmYWE86AibHXS-12">
          <mxGeometry width="50" height="50" relative="1" as="geometry">
            <mxPoint x="40" y="130" as="sourcePoint" />
            <mxPoint x="140" y="90" as="targetPoint" />
          </mxGeometry>
        </mxCell>
        <mxCell id="VXBI-gINmYWE86AibHXS-13" value="Deporte" style="swimlane;fontStyle=0;childLayout=stackLayout;horizontal=1;startSize=30;horizontalStack=0;resizeParent=1;resizeParentMax=0;resizeLast=0;collapsible=1;marginBottom=0;whiteSpace=wrap;html=1;" vertex="1" parent="1">
          <mxGeometry x="110" y="410" width="210" height="660" as="geometry" />
        </mxCell>
        <mxCell id="VXBI-gINmYWE86AibHXS-14" value="- string nombre" style="text;strokeColor=none;fillColor=none;align=left;verticalAlign=middle;spacingLeft=4;spacingRight=4;overflow=hidden;points=[[0,0.5],[1,0.5]];portConstraint=eastwest;rotatable=0;whiteSpace=wrap;html=1;" vertex="1" parent="VXBI-gINmYWE86AibHXS-13">
          <mxGeometry y="30" width="210" height="30" as="geometry" />
        </mxCell>
        <mxCell id="VXBI-gINmYWE86AibHXS-15" value="- string categoria" style="text;strokeColor=none;fillColor=none;align=left;verticalAlign=middle;spacingLeft=4;spacingRight=4;overflow=hidden;points=[[0,0.5],[1,0.5]];portConstraint=eastwest;rotatable=0;whiteSpace=wrap;html=1;" vertex="1" parent="VXBI-gINmYWE86AibHXS-13">
          <mxGeometry y="60" width="210" height="30" as="geometry" />
        </mxCell>
        <mxCell id="VXBI-gINmYWE86AibHXS-16" value="- Entrenador entrenador" style="text;strokeColor=none;fillColor=none;align=left;verticalAlign=middle;spacingLeft=4;spacingRight=4;overflow=hidden;points=[[0,0.5],[1,0.5]];portConstraint=eastwest;rotatable=0;whiteSpace=wrap;html=1;" vertex="1" parent="VXBI-gINmYWE86AibHXS-13">
          <mxGeometry y="90" width="210" height="30" as="geometry" />
        </mxCell>
        <mxCell id="VXBI-gINmYWE86AibHXS-38" value="- int cupo" style="text;strokeColor=none;fillColor=none;align=left;verticalAlign=middle;spacingLeft=4;spacingRight=4;overflow=hidden;points=[[0,0.5],[1,0.5]];portConstraint=eastwest;rotatable=0;whiteSpace=wrap;html=1;" vertex="1" parent="VXBI-gINmYWE86AibHXS-13">
          <mxGeometry y="120" width="210" height="30" as="geometry" />
        </mxCell>
        <mxCell id="VXBI-gINmYWE86AibHXS-39" value="- List&amp;lt;Socio&amp;gt; inscriptos" style="text;strokeColor=none;fillColor=none;align=left;verticalAlign=middle;spacingLeft=4;spacingRight=4;overflow=hidden;points=[[0,0.5],[1,0.5]];portConstraint=eastwest;rotatable=0;whiteSpace=wrap;html=1;" vertex="1" parent="VXBI-gINmYWE86AibHXS-13">
          <mxGeometry y="150" width="210" height="30" as="geometry" />
        </mxCell>
        <mxCell id="VXBI-gINmYWE86AibHXS-40" value="- double costoCuota" style="text;strokeColor=none;fillColor=none;align=left;verticalAlign=middle;spacingLeft=4;spacingRight=4;overflow=hidden;points=[[0,0.5],[1,0.5]];portConstraint=eastwest;rotatable=0;whiteSpace=wrap;html=1;" vertex="1" parent="VXBI-gINmYWE86AibHXS-13">
          <mxGeometry y="180" width="210" height="30" as="geometry" />
        </mxCell>
        <mxCell id="VXBI-gINmYWE86AibHXS-41" value="- string diasEntrenamiento" style="text;strokeColor=none;fillColor=none;align=left;verticalAlign=middle;spacingLeft=4;spacingRight=4;overflow=hidden;points=[[0,0.5],[1,0.5]];portConstraint=eastwest;rotatable=0;whiteSpace=wrap;html=1;" vertex="1" parent="VXBI-gINmYWE86AibHXS-13">
          <mxGeometry y="210" width="210" height="30" as="geometry" />
        </mxCell>
        <mxCell id="VXBI-gINmYWE86AibHXS-42" value="- string horarios" style="text;strokeColor=none;fillColor=none;align=left;verticalAlign=middle;spacingLeft=4;spacingRight=4;overflow=hidden;points=[[0,0.5],[1,0.5]];portConstraint=eastwest;rotatable=0;whiteSpace=wrap;html=1;" vertex="1" parent="VXBI-gINmYWE86AibHXS-13">
          <mxGeometry y="240" width="210" height="30" as="geometry" />
        </mxCell>
        <mxCell id="VXBI-gINmYWE86AibHXS-51" value="+ string Nombre" style="text;strokeColor=none;fillColor=none;align=left;verticalAlign=middle;spacingLeft=4;spacingRight=4;overflow=hidden;points=[[0,0.5],[1,0.5]];portConstraint=eastwest;rotatable=0;whiteSpace=wrap;html=1;" vertex="1" parent="VXBI-gINmYWE86AibHXS-13">
          <mxGeometry y="270" width="210" height="30" as="geometry" />
        </mxCell>
        <mxCell id="VXBI-gINmYWE86AibHXS-52" value="+ string Categoria" style="text;strokeColor=none;fillColor=none;align=left;verticalAlign=middle;spacingLeft=4;spacingRight=4;overflow=hidden;points=[[0,0.5],[1,0.5]];portConstraint=eastwest;rotatable=0;whiteSpace=wrap;html=1;" vertex="1" parent="VXBI-gINmYWE86AibHXS-13">
          <mxGeometry y="300" width="210" height="30" as="geometry" />
        </mxCell>
        <mxCell id="VXBI-gINmYWE86AibHXS-53" value="+ Entrenador Entrenador" style="text;strokeColor=none;fillColor=none;align=left;verticalAlign=middle;spacingLeft=4;spacingRight=4;overflow=hidden;points=[[0,0.5],[1,0.5]];portConstraint=eastwest;rotatable=0;whiteSpace=wrap;html=1;" vertex="1" parent="VXBI-gINmYWE86AibHXS-13">
          <mxGeometry y="330" width="210" height="30" as="geometry" />
        </mxCell>
        <mxCell id="VXBI-gINmYWE86AibHXS-54" value="+ int Cupo" style="text;strokeColor=none;fillColor=none;align=left;verticalAlign=middle;spacingLeft=4;spacingRight=4;overflow=hidden;points=[[0,0.5],[1,0.5]];portConstraint=eastwest;rotatable=0;whiteSpace=wrap;html=1;" vertex="1" parent="VXBI-gINmYWE86AibHXS-13">
          <mxGeometry y="360" width="210" height="30" as="geometry" />
        </mxCell>
        <mxCell id="VXBI-gINmYWE86AibHXS-55" value="+ List&amp;lt;Socio&amp;gt; Inscriptos" style="text;strokeColor=none;fillColor=none;align=left;verticalAlign=middle;spacingLeft=4;spacingRight=4;overflow=hidden;points=[[0,0.5],[1,0.5]];portConstraint=eastwest;rotatable=0;whiteSpace=wrap;html=1;" vertex="1" parent="VXBI-gINmYWE86AibHXS-13">
          <mxGeometry y="390" width="210" height="30" as="geometry" />
        </mxCell>
        <mxCell id="VXBI-gINmYWE86AibHXS-56" value="+ double CostoCuota" style="text;strokeColor=none;fillColor=none;align=left;verticalAlign=middle;spacingLeft=4;spacingRight=4;overflow=hidden;points=[[0,0.5],[1,0.5]];portConstraint=eastwest;rotatable=0;whiteSpace=wrap;html=1;" vertex="1" parent="VXBI-gINmYWE86AibHXS-13">
          <mxGeometry y="420" width="210" height="30" as="geometry" />
        </mxCell>
        <mxCell id="VXBI-gINmYWE86AibHXS-57" value="+ string DiasEntrenamiento" style="text;strokeColor=none;fillColor=none;align=left;verticalAlign=middle;spacingLeft=4;spacingRight=4;overflow=hidden;points=[[0,0.5],[1,0.5]];portConstraint=eastwest;rotatable=0;whiteSpace=wrap;html=1;" vertex="1" parent="VXBI-gINmYWE86AibHXS-13">
          <mxGeometry y="450" width="210" height="30" as="geometry" />
        </mxCell>
        <mxCell id="VXBI-gINmYWE86AibHXS-58" value="+ string Horarios" style="text;strokeColor=none;fillColor=none;align=left;verticalAlign=middle;spacingLeft=4;spacingRight=4;overflow=hidden;points=[[0,0.5],[1,0.5]];portConstraint=eastwest;rotatable=0;whiteSpace=wrap;html=1;" vertex="1" parent="VXBI-gINmYWE86AibHXS-13">
          <mxGeometry y="480" width="210" height="30" as="geometry" />
        </mxCell>
        <mxCell id="VXBI-gINmYWE86AibHXS-59" value="+ bool AgregarSocio(Socio)" style="text;strokeColor=none;fillColor=none;align=left;verticalAlign=middle;spacingLeft=4;spacingRight=4;overflow=hidden;points=[[0,0.5],[1,0.5]];portConstraint=eastwest;rotatable=0;whiteSpace=wrap;html=1;" vertex="1" parent="VXBI-gINmYWE86AibHXS-13">
          <mxGeometry y="510" width="210" height="30" as="geometry" />
        </mxCell>
        <mxCell id="VXBI-gINmYWE86AibHXS-60" value="+ bool EliminarSocio(string)" style="text;strokeColor=none;fillColor=none;align=left;verticalAlign=middle;spacingLeft=4;spacingRight=4;overflow=hidden;points=[[0,0.5],[1,0.5]];portConstraint=eastwest;rotatable=0;whiteSpace=wrap;html=1;" vertex="1" parent="VXBI-gINmYWE86AibHXS-13">
          <mxGeometry y="540" width="210" height="30" as="geometry" />
        </mxCell>
        <mxCell id="VXBI-gINmYWE86AibHXS-61" value="+ int CantidadSocios()" style="text;strokeColor=none;fillColor=none;align=left;verticalAlign=middle;spacingLeft=4;spacingRight=4;overflow=hidden;points=[[0,0.5],[1,0.5]];portConstraint=eastwest;rotatable=0;whiteSpace=wrap;html=1;" vertex="1" parent="VXBI-gINmYWE86AibHXS-13">
          <mxGeometry y="570" width="210" height="30" as="geometry" />
        </mxCell>
        <mxCell id="VXBI-gINmYWE86AibHXS-62" value="+ Socio VerSocio(string)" style="text;strokeColor=none;fillColor=none;align=left;verticalAlign=middle;spacingLeft=4;spacingRight=4;overflow=hidden;points=[[0,0.5],[1,0.5]];portConstraint=eastwest;rotatable=0;whiteSpace=wrap;html=1;" vertex="1" parent="VXBI-gINmYWE86AibHXS-13">
          <mxGeometry y="600" width="210" height="30" as="geometry" />
        </mxCell>
        <mxCell id="VXBI-gINmYWE86AibHXS-63" value="+ List&amp;lt;Socio&amp;gt; TodosSocios()" style="text;strokeColor=none;fillColor=none;align=left;verticalAlign=middle;spacingLeft=4;spacingRight=4;overflow=hidden;points=[[0,0.5],[1,0.5]];portConstraint=eastwest;rotatable=0;whiteSpace=wrap;html=1;" vertex="1" parent="VXBI-gINmYWE86AibHXS-13">
          <mxGeometry y="630" width="210" height="30" as="geometry" />
        </mxCell>
        <mxCell id="VXBI-gINmYWE86AibHXS-77" value="" style="endArrow=none;html=1;rounded=0;exitX=-0.002;exitY=-0.002;exitDx=0;exitDy=0;exitPerimeter=0;entryX=1.001;entryY=1.006;entryDx=0;entryDy=0;entryPerimeter=0;" edge="1" parent="VXBI-gINmYWE86AibHXS-13" source="VXBI-gINmYWE86AibHXS-51" target="VXBI-gINmYWE86AibHXS-42">
          <mxGeometry width="50" height="50" relative="1" as="geometry">
            <mxPoint x="210" y="350" as="sourcePoint" />
            <mxPoint x="260" y="300" as="targetPoint" />
          </mxGeometry>
        </mxCell>
        <mxCell id="VXBI-gINmYWE86AibHXS-17" value="Club" style="swimlane;fontStyle=0;childLayout=stackLayout;horizontal=1;startSize=30;horizontalStack=0;resizeParent=1;resizeParentMax=0;resizeLast=0;collapsible=1;marginBottom=0;whiteSpace=wrap;html=1;" vertex="1" parent="1">
          <mxGeometry x="430" y="410" width="240" height="390" as="geometry" />
        </mxCell>
        <mxCell id="VXBI-gINmYWE86AibHXS-18" value="- List&amp;lt;Deportes&amp;gt; deportes" style="text;strokeColor=none;fillColor=none;align=left;verticalAlign=middle;spacingLeft=4;spacingRight=4;overflow=hidden;points=[[0,0.5],[1,0.5]];portConstraint=eastwest;rotatable=0;whiteSpace=wrap;html=1;" vertex="1" parent="VXBI-gINmYWE86AibHXS-17">
          <mxGeometry y="30" width="240" height="30" as="geometry" />
        </mxCell>
        <mxCell id="VXBI-gINmYWE86AibHXS-19" value="- List&amp;lt;Entrenador&amp;gt; entrenadores" style="text;strokeColor=none;fillColor=none;align=left;verticalAlign=middle;spacingLeft=4;spacingRight=4;overflow=hidden;points=[[0,0.5],[1,0.5]];portConstraint=eastwest;rotatable=0;whiteSpace=wrap;html=1;" vertex="1" parent="VXBI-gINmYWE86AibHXS-17">
          <mxGeometry y="60" width="240" height="30" as="geometry" />
        </mxCell>
        <mxCell id="VXBI-gINmYWE86AibHXS-20" value="+ bool AgregarEntrenador(Entrenador)" style="text;strokeColor=none;fillColor=none;align=left;verticalAlign=middle;spacingLeft=4;spacingRight=4;overflow=hidden;points=[[0,0.5],[1,0.5]];portConstraint=eastwest;rotatable=0;whiteSpace=wrap;html=1;" vertex="1" parent="VXBI-gINmYWE86AibHXS-17">
          <mxGeometry y="90" width="240" height="30" as="geometry" />
        </mxCell>
        <mxCell id="VXBI-gINmYWE86AibHXS-64" value="+&amp;nbsp;bool EliminarEntrenador(string)" style="text;strokeColor=none;fillColor=none;align=left;verticalAlign=middle;spacingLeft=4;spacingRight=4;overflow=hidden;points=[[0,0.5],[1,0.5]];portConstraint=eastwest;rotatable=0;whiteSpace=wrap;html=1;" vertex="1" parent="VXBI-gINmYWE86AibHXS-17">
          <mxGeometry y="120" width="240" height="30" as="geometry" />
        </mxCell>
        <mxCell id="VXBI-gINmYWE86AibHXS-65" value="+ int&amp;nbsp;CantidadEntrenadores()" style="text;strokeColor=none;fillColor=none;align=left;verticalAlign=middle;spacingLeft=4;spacingRight=4;overflow=hidden;points=[[0,0.5],[1,0.5]];portConstraint=eastwest;rotatable=0;whiteSpace=wrap;html=1;" vertex="1" parent="VXBI-gINmYWE86AibHXS-17">
          <mxGeometry y="150" width="240" height="30" as="geometry" />
        </mxCell>
        <mxCell id="VXBI-gINmYWE86AibHXS-66" value="+ Entrenador VerEntrenador(string)" style="text;strokeColor=none;fillColor=none;align=left;verticalAlign=middle;spacingLeft=4;spacingRight=4;overflow=hidden;points=[[0,0.5],[1,0.5]];portConstraint=eastwest;rotatable=0;whiteSpace=wrap;html=1;" vertex="1" parent="VXBI-gINmYWE86AibHXS-17">
          <mxGeometry y="180" width="240" height="30" as="geometry" />
        </mxCell>
        <mxCell id="VXBI-gINmYWE86AibHXS-67" value="+ List&amp;lt;Entrenador&amp;gt; TodosEntrenadores()" style="text;strokeColor=none;fillColor=none;align=left;verticalAlign=middle;spacingLeft=4;spacingRight=4;overflow=hidden;points=[[0,0.5],[1,0.5]];portConstraint=eastwest;rotatable=0;whiteSpace=wrap;html=1;" vertex="1" parent="VXBI-gINmYWE86AibHXS-17">
          <mxGeometry y="210" width="240" height="30" as="geometry" />
        </mxCell>
        <mxCell id="VXBI-gINmYWE86AibHXS-68" value="+ bool AgregarDeporte(Deporte)" style="text;strokeColor=none;fillColor=none;align=left;verticalAlign=middle;spacingLeft=4;spacingRight=4;overflow=hidden;points=[[0,0.5],[1,0.5]];portConstraint=eastwest;rotatable=0;whiteSpace=wrap;html=1;" vertex="1" parent="VXBI-gINmYWE86AibHXS-17">
          <mxGeometry y="240" width="240" height="30" as="geometry" />
        </mxCell>
        <mxCell id="VXBI-gINmYWE86AibHXS-69" value="+ bool EliminarDeporte(string, string)" style="text;strokeColor=none;fillColor=none;align=left;verticalAlign=middle;spacingLeft=4;spacingRight=4;overflow=hidden;points=[[0,0.5],[1,0.5]];portConstraint=eastwest;rotatable=0;whiteSpace=wrap;html=1;" vertex="1" parent="VXBI-gINmYWE86AibHXS-17">
          <mxGeometry y="270" width="240" height="30" as="geometry" />
        </mxCell>
        <mxCell id="VXBI-gINmYWE86AibHXS-70" value="+ int&amp;nbsp;CantidadDeportes()" style="text;strokeColor=none;fillColor=none;align=left;verticalAlign=middle;spacingLeft=4;spacingRight=4;overflow=hidden;points=[[0,0.5],[1,0.5]];portConstraint=eastwest;rotatable=0;whiteSpace=wrap;html=1;" vertex="1" parent="VXBI-gINmYWE86AibHXS-17">
          <mxGeometry y="300" width="240" height="30" as="geometry" />
        </mxCell>
        <mxCell id="VXBI-gINmYWE86AibHXS-71" value="+ Deporte VerDeporte(string, string)" style="text;strokeColor=none;fillColor=none;align=left;verticalAlign=middle;spacingLeft=4;spacingRight=4;overflow=hidden;points=[[0,0.5],[1,0.5]];portConstraint=eastwest;rotatable=0;whiteSpace=wrap;html=1;" vertex="1" parent="VXBI-gINmYWE86AibHXS-17">
          <mxGeometry y="330" width="240" height="30" as="geometry" />
        </mxCell>
        <mxCell id="VXBI-gINmYWE86AibHXS-72" value="+ List&amp;lt;Deporte&amp;gt; TodosDeportes()" style="text;strokeColor=none;fillColor=none;align=left;verticalAlign=middle;spacingLeft=4;spacingRight=4;overflow=hidden;points=[[0,0.5],[1,0.5]];portConstraint=eastwest;rotatable=0;whiteSpace=wrap;html=1;" vertex="1" parent="VXBI-gINmYWE86AibHXS-17">
          <mxGeometry y="360" width="240" height="30" as="geometry" />
        </mxCell>
        <mxCell id="VXBI-gINmYWE86AibHXS-78" value="" style="endArrow=none;html=1;rounded=0;exitX=-0.001;exitY=0.036;exitDx=0;exitDy=0;exitPerimeter=0;entryX=1;entryY=0.029;entryDx=0;entryDy=0;entryPerimeter=0;" edge="1" parent="VXBI-gINmYWE86AibHXS-17" source="VXBI-gINmYWE86AibHXS-20" target="VXBI-gINmYWE86AibHXS-20">
          <mxGeometry width="50" height="50" relative="1" as="geometry">
            <mxPoint x="70" y="110" as="sourcePoint" />
            <mxPoint x="120" y="60" as="targetPoint" />
          </mxGeometry>
        </mxCell>
        <mxCell id="VXBI-gINmYWE86AibHXS-73" value="" style="endArrow=classic;html=1;rounded=0;exitX=1;exitY=0.023;exitDx=0;exitDy=0;exitPerimeter=0;entryX=0;entryY=0.5;entryDx=0;entryDy=0;" edge="1" parent="1" source="VXBI-gINmYWE86AibHXS-13" target="VXBI-gINmYWE86AibHXS-18">
          <mxGeometry width="50" height="50" relative="1" as="geometry">
            <mxPoint x="400" y="480" as="sourcePoint" />
            <mxPoint x="420" y="450" as="targetPoint" />
            <Array as="points">
              <mxPoint x="380" y="425" />
              <mxPoint x="380" y="455" />
            </Array>
          </mxGeometry>
        </mxCell>
        <mxCell id="VXBI-gINmYWE86AibHXS-74" value="" style="endArrow=classic;html=1;rounded=0;exitX=0.999;exitY=0.083;exitDx=0;exitDy=0;exitPerimeter=0;entryX=0.998;entryY=0.341;entryDx=0;entryDy=0;entryPerimeter=0;" edge="1" parent="1" source="VXBI-gINmYWE86AibHXS-9" target="VXBI-gINmYWE86AibHXS-19">
          <mxGeometry width="50" height="50" relative="1" as="geometry">
            <mxPoint x="400" y="280" as="sourcePoint" />
            <mxPoint x="450" y="230" as="targetPoint" />
            <Array as="points">
              <mxPoint x="800" y="102" />
              <mxPoint x="800" y="480" />
            </Array>
          </mxGeometry>
        </mxCell>
        <mxCell id="VXBI-gINmYWE86AibHXS-75" value="" style="endArrow=classic;html=1;rounded=0;exitX=1.002;exitY=0.059;exitDx=0;exitDy=0;exitPerimeter=0;entryX=0.001;entryY=0.048;entryDx=0;entryDy=0;entryPerimeter=0;" edge="1" parent="1" source="VXBI-gINmYWE86AibHXS-1" target="VXBI-gINmYWE86AibHXS-5">
          <mxGeometry width="50" height="50" relative="1" as="geometry">
            <mxPoint x="250.69999999999993" y="99.99999999999999" as="sourcePoint" />
            <mxPoint x="360" y="102.34000000000002" as="targetPoint" />
          </mxGeometry>
        </mxCell>
        <mxCell id="VXBI-gINmYWE86AibHXS-76" value="" style="endArrow=classic;html=1;rounded=0;entryX=0;entryY=0.5;entryDx=0;entryDy=0;" edge="1" parent="1" target="VXBI-gINmYWE86AibHXS-39">
          <mxGeometry width="50" height="50" relative="1" as="geometry">
            <mxPoint x="500" y="106" as="sourcePoint" />
            <mxPoint x="130" y="360" as="targetPoint" />
            <Array as="points">
              <mxPoint x="540" y="106" />
              <mxPoint x="540" y="380" />
              <mxPoint x="60" y="380" />
              <mxPoint x="60" y="575" />
            </Array>
          </mxGeometry>
        </mxCell>
      </root>
    </mxGraphModel>
  </diagram>
</mxfile>
